<?xml version="1.0" ?><svg id="outine" viewBox="0 0 48 48" xmlns="http://www.w3.org/2000/svg"><title/><path d="M10.732,34.134a16.621,16.621,0,0,0,7.536,1.832,7.285,7.285,0,0,0,4.187-.98c1.114-.861,1.2-2.852,1.158-3.963a.731.731,0,0,0-.78-.717.749.749,0,0,0-.719.78c.062,1.518-.245,2.457-.578,2.715-1.154.892-5.984,1.2-10.1-.991-4.332-2.31-6.58-5.523-5.729-8.185,1.382-4.317,6.31-3.537,8.363-3,1.029.269,4.526,1.35,6.34,3.973a9.826,9.826,0,0,1,1.375,3.231.75.75,0,0,0,1.458-.353,11.353,11.353,0,0,0-1.6-3.732c-2.108-3.048-6.04-4.268-7.195-4.57-1.926-.5-8.348-1.7-10.17,4C3.181,27.606,5.653,31.425,10.732,34.134Z"/><path d="M27.744,26.923l-.405-.119a2.032,2.032,0,0,0-2.57,2.378,14.818,14.818,0,0,1,.369,3.271,2.558,2.558,0,0,0,1.025,2.21,4.465,4.465,0,0,0,2.646.73,6.6,6.6,0,0,0,1.926-.276,3.516,3.516,0,0,0,2.17-2.161,3.394,3.394,0,0,0-.415-3.045A7.6,7.6,0,0,0,27.744,26.923Zm3.747,5.533a2.045,2.045,0,0,1-1.215,1.233,4.289,4.289,0,0,1-3.215-.227,1.077,1.077,0,0,1-.423-.972,16.22,16.22,0,0,0-.4-3.633.518.518,0,0,1,.158-.5.541.541,0,0,1,.358-.144.573.573,0,0,1,.157.023l.415.123c1.436.421,2.921.856,3.913,2.371A1.893,1.893,0,0,1,31.491,32.456Z"/><path d="M25.054,24.77l.113.007c2.8.184,5.453.357,7.318,2.514,1.307,1.512,2.878,3.328,5.3,3.328a5.654,5.654,0,0,0,1.667-.267,7.544,7.544,0,0,0,4.667-3.676,5.331,5.331,0,0,0,.126-4.345,7.366,7.366,0,0,0-6.189-4.763.75.75,0,0,0-.23,1.483,5.882,5.882,0,0,1,5.021,3.823,3.811,3.811,0,0,1-.079,3.148,6.043,6.043,0,0,1-3.76,2.9c-2.469.766-3.821-.8-5.4-2.621-2.264-2.619-5.494-2.83-8.343-3.017l-.113-.007a3.644,3.644,0,0,1-.426-.05,10.077,10.077,0,0,1,1.17-1.032c.139-.108.261-.2.354-.282a20.145,20.145,0,0,1,8.472-2.951c.243-.017.481-.029.712-.035a.752.752,0,0,0,.729-.772.775.775,0,0,0-.771-.728c-.252.008-.51.02-.774.039a21.2,21.2,0,0,0-9.333,3.3c-.083.069-.191.154-.314.25-.963.756-2.162,1.7-1.842,2.731C23.413,24.662,24.648,24.743,25.054,24.77Z"/><path d="M48,24.318a8.037,8.037,0,0,0-.238-1.887A10.882,10.882,0,0,0,39.7,14.894c-6.353-1.518-10.657.545-13.8,2.054-1.811.868-3.239,1.563-4.55,1.419a39.143,39.143,0,0,1-4.2-.815c-3.969-.905-8.907-2.031-12.316-.49A8.444,8.444,0,0,0,0,25.113a.272.272,0,0,0,0,.03v8.622A8.776,8.776,0,0,0,2.228,39.6c2.792,3.132,7.889,6.865,16.325,6.865h.026C33.931,46.451,42.412,39.85,46.1,35.915A6.964,6.964,0,0,0,48,31.137V24.318ZM45.008,34.89c-3.524,3.756-11.643,10.062-26.43,10.076h-.025c-7.88,0-12.618-3.459-15.205-6.363A7.28,7.28,0,0,1,1.5,33.765v-3.18a14.244,14.244,0,0,0,2.758,3.6.75.75,0,0,0,1.033-1.088,11.881,11.881,0,0,1-3.748-7.125c-.1-.921-.363-5.609,3.9-7.539,2.95-1.335,7.616-.271,11.364.585a40.252,40.252,0,0,0,4.381.844c1.728.175,3.408-.627,5.352-1.558,3.1-1.489,6.97-3.343,12.8-1.948a9.354,9.354,0,0,1,6.96,6.438c.632,2.555-.311,5.094-2.658,7.151C39.192,33.85,33.214,38,18.594,37.7c-4.747-.095-8.664-1.191-11.642-3.259A.75.75,0,0,0,6.1,35.676C9.321,37.914,13.516,39.1,18.563,39.2c.523.011,1.033.016,1.536.016,12.6,0,18.969-3.264,24.539-8.149A11.138,11.138,0,0,0,46.5,28.984v2.153A5.476,5.476,0,0,1,45.008,34.89Z"/><path d="M18.665,12.556c.008.008.02.011.029.019A7.4,7.4,0,1,0,29.153,2.1c0-.005-.006-.012-.011-.017s-.02-.011-.028-.018A7.4,7.4,0,0,0,18.633,12.509C18.646,12.523,18.651,12.542,18.665,12.556ZM20.28,12,23.9,8.377l3.706,3.706A5.882,5.882,0,0,1,20.28,12Zm8.39-.977L24.964,7.317l3.625-3.625a5.881,5.881,0,0,1,.081,7.331ZM27.5,2.659l-3.6,3.6L20.389,2.742A5.869,5.869,0,0,1,27.5,2.659ZM19.328,3.8l3.515,3.515-3.6,3.6a5.87,5.87,0,0,1,.081-7.11Z"/></svg>